#!OML:ASF I:\Actors\actors\Patient Classification 1\Patient 1\Session 1\Subject1.ASF
:FULLY-SPECIFIED
:DEGREES
1315
root -0.660925 17.5509 7.59774 7.71046 -2.84776 -7.57697
lowerback 0.324433 0.614859 5.30224
upperback -11.2883 1.38797 1.94936
thorax -12.2954 0.257047 -0.983866
lowerneck -16.0348 -3.85322 -0.984776
upperneck 27.4875 -6.91925 5.23262
head 11.9107 -2.56206 1.0767
rclavicle -1.08835e-014 5.1684e-015
rhumerus -50.6084 -1.241 -89.3082
rradius 118.636
rwrist 8.38093
rhand -11.762 -37.9053
rfingers 7.12502
rthumb 14.2863 -67.3939
lclavicle -1.08835e-014 5.1684e-015
lhumerus -51.0703 -2.22734 90.1436
lradius 112.847
lwrist 13.041
lhand -36.619 -23.7092
lfingers 7.12502
lthumb -9.70706 6.04711
rfemur -0.969149 22.0145 27.5812
rtibia 2.57708
rfoot -13.2497 -23.47
rtoes 5.45882
lfemur 3.37384 -36.1469 -12.6397
ltibia -2.61989
lfoot -11.9368 43.3346
ltoes 1.20468
1316
root -0.659376 17.5515 7.58051 7.59233 -2.7428 -7.5792
lowerback 0.364123 0.593552 5.32662
upperback -11.3041 1.36501 1.94902
thorax -12.3401 0.242361 -0.995534
lowerneck -15.7515 -3.82661 -0.965034
upperneck 27.5959 -6.87155 5.16382
head 11.8894 -2.55102 1.06086
rclavicle -5.11871e-015 -2.10712e-014
rhumerus -47.8022 -0.182807 -89.047
rradius 118.117
rwrist 8.13115
rhand -10.9148 -38.3666
rfingers 7.12502
rthumb 15.1026 -67.7956
lclavicle -5.11871e-015 -2.10712e-014
lhumerus -47.7475 -3.42736 89.5508
lradius 111.97
lwrist 12.7245
lhand -36.6048 -22.4137
lfingers 7.12502
lthumb -9.6934 7.34327
rfemur -0.859622 21.9303 27.6137
rtibia 2.50189
rfoot -13.2141 -23.5362
rtoes 5.46285
lfemur 3.4359 -36.2434 -12.6711
ltibia -2.63831
lfoot -11.8573 43.3149
ltoes 1.18845
1317
root -0.660924 17.55 7.56061 7.59301 -2.72633 -7.65058
lowerback 0.273081 0.632655 5.37474
upperback -11.3596 1.41904 1.96513
thorax -12.3468 0.264063 -1.00891
lowerneck -15.3812 -3.83162 -1.03448
upperneck 27.7086 -6.86067 5.15087
head 11.8591 -2.56051 1.07693
rclavicle 2.37051e-014 -3.45885e-014
rhumerus -44.4775 0.965029 -88.7022
rradius 117.32
rwrist 7.87232
rhand -10.1435 -38.8262
rfingers 7.12502
rthumb 15.8454 -68.1978
lclavicle 2.37051e-014 -3.45885e-014
lhumerus -43.8619 -4.77895 88.8112
lradius 110.806
lwrist 12.3481
lhand -36.6363 -21.1417
lfingers 7.12502
lthumb -9.72373 8.6138
rfemur -0.921125 21.9674 27.6893
rtibia 2.50088
rfoot -13.102 -23.6218
rtoes 5.26028
lfemur 3.37662 -36.2906 -12.5204
ltibia -2.69747
lfoot -11.8956 43.3545
ltoes 1.37575
1318
root -0.662125 17.5508 7.54077 7.53542 -2.71606 -7.74788
lowerback 0.203463 0.664911 5.41614
upperback -11.4277 1.46704 1.99655
thorax -12.3827 0.283706 -1.00126
lowerneck -14.9702 -3.84258 -1.09274
upperneck 27.9315 -6.87117 5.13763
head 11.8643 -2.57676 1.08908
rclavicle 1.2424e-015 1.27222e-014
rhumerus -40.5057 2.16871 -87.8939
rradius 116.16
rwrist 8.26078
rhand -7.88428 -42.4383
rfingers 7.12502
rthumb 18.0202 -71.6235
lclavicle 1.2424e-015 1.27222e-014
lhumerus -39.5286 -6.06361 87.9579
lradius 109.339
lwrist 12.188
lhand -36.4019 -19.875
lfingers 7.12502
lthumb -9.49763 9.89093
rfemur -0.916699 22.0873 27.8238
rtibia 2.51512
rfoot -13.033 -23.7364
rtoes 5.32652
lfemur 3.40628 -36.3579 -12.4051
ltibia -2.74865
lfoot -11.9954 43.4225
ltoes 1.6041
1319
root -0.666936 17.5608 7.52986 7.07453 -2.23484 -7.71386
lowerback 0.316534 0.478789 5.28539
upperback -11.3933 1.21754 2.03372
thorax -12.4276 0.178729 -0.8633
lowerneck -14.6074 -3.82765 -1.07316
upperneck 28.3176 -6.85492 5.04255
head 11.9359 -2.57826 1.0614
rclavicle 1.83876e-014 -6.16232e-015
rhumerus -36.1601 3.50928 -87.0717
rradius 114.526
rwrist 7.7491
rhand -6.87302 -43.3992
rfingers 7.12502
rthumb 18.9929 -72.4919
lclavicle 1.83876e-014 -6.16232e-015
lhumerus -34.8391 -7.14698 87.0399
lradius 107.485
lwrist 12.2664
lhand -36.2706 -18.8476
lfingers 7.12502
lthumb -9.37087 10.9241
rfemur -0.129213 22.5143 28.148
rtibia 2.17598
rfoot -13.2679 -24.6154
rtoes 6.2495
lfemur 3.80902 -36.4353 -12.6106
ltibia -2.78183
lfoot -11.6265 43.0263
ltoes 1.01652
1320
root -0.668222 17.5643 7.51297 6.84949 -2.02648 -7.67936
lowerback 0.287805 0.377121 5.17858
upperback -11.4253 1.07464 2.06097
thorax -12.4562 0.121597 -0.758381
lowerneck -14.2749 -3.77383 -1.12031
upperneck 28.7557 -6.8016 5.05735
head 12.041 -2.55434 1.09127
rclavicle 4.96962e-016 -6.75868e-015
rhumerus -31.569 4.79072 -86.3497
rradius 112.514
rwrist 6.31594
rhand -6.81317 -43.2246
rfingers 7.12502
rthumb 19.0505 -72.3116
lclavicle 4.96962e-016 -6.75868e-015
lhumerus -29.887 -8.10662 86.0809
lradius 105.243
lwrist 12.5775
lhand -36.5835 -17.9262
lfingers 7.12502
lthumb -9.67282 11.8317
rfemur 0.172277 22.593 28.2467
rtibia 2.05954
rfoot -13.3133 -24.9065
rtoes 6.50868
lfemur 3.92557 -36.4122 -12.6941
ltibia -2.75965
lfoot -11.4064 42.7764
ltoes 0.828492
1321
root -0.667114 17.5649 7.49244 6.71365 -2.00205 -7.65619
lowerback 0.226061 0.367427 5.11175
upperback -11.472 1.05422 2.0578
thorax -12.4741 0.117591 -0.721595
lowerneck -13.9655 -3.73428 -1.22616
upperneck 29.1874 -6.78509 5.17571
head 12.1577 -2.53981 1.16445
rclavicle 8.00108e-015 1.0138e-014
rhumerus -26.7649 5.67521 -85.5187
rradius 110.109
rwrist 5.15031
rhand -6.83639 -43.8871
rfingers 7.12502
rthumb 19.0282 -72.9764
lclavicle 8.00108e-015 1.0138e-014
lhumerus -24.769 -9.04091 85.154
lradius 102.686
lwrist 13.133
lhand -36.7995 -16.5864
lfingers 7.12502
lthumb -9.88125 13.1618
rfemur 0.233331 22.5067 28.237
rtibia 2.07092
rfoot -13.1936 -24.8858
rtoes 6.44545
lfemur 3.97228 -36.3771 -12.7479
ltibia -2.72987
lfoot -11.3416 42.6835
ltoes 1.12218
1322
root -0.664746 17.5659 7.47142 6.55343 -2.00482 -7.63603
lowerback 0.239728 0.390407 5.05838
upperback -11.5009 1.08254 2.04017
thorax -12.5149 0.134626 -0.713949
lowerneck -13.7926 -3.74155 -1.18998
upperneck 29.5928 -6.81983 5.11892
head 12.2821 -2.55272 1.13743
rclavicle -4.91992e-015 -1.51076e-014
rhumerus -21.8893 6.27051 -84.6666
rradius 107.323
rwrist 4.82909
rhand -7.18351 -44.4031
rfingers 7.12502
rthumb 18.6943 -73.5248
lclavicle -4.91992e-015 -1.51076e-014
lhumerus -19.5951 -9.91133 84.2774
lradius 99.7813
lwrist 13.5476
lhand -36.8343 -15.4596
lfingers 7.12502
lthumb -9.91478 14.2869
rfemur 0.307541 22.4003 28.2217
rtibia 2.07952
rfoot -13.1002 -24.8094
rtoes 6.52535
lfemur 4.06099 -36.2847 -12.8228
ltibia -2.72443
lfoot -11.0804 42.5776
ltoes 0.874993
1323
root -0.662479 17.5674 7.45088 6.41437 -2.01001 -7.63845
lowerback 0.288185 0.386977 4.99944
upperback -11.5448 1.08316 2.07636
thorax -12.5981 0.141447 -0.641531
lowerneck -13.7347 -3.74159 -1.13358
upperneck 30.0119 -6.81771 4.95675
head 12.43 -2.5577 1.07018
rclavicle -1.3418e-015 1.59028e-015
rhumerus -16.9871 6.7543 -83.8499
rradius 104.159
rwrist 5.09713
rhand -7.64515 -44.9024
rfingers 7.12502
rthumb 18.2502 -74.0663
lclavicle -1.3418e-015 1.59028e-015
lhumerus -14.4787 -10.4796 83.4818
lradius 96.3822
lwrist 13.3916
lhand -36.866 -15.1141
lfingers 7.12502
lthumb -9.94537 14.631
rfemur 0.340915 22.2749 28.2204
rtibia 2.12107
rfoot -13.0064 -24.6957
rtoes 6.44951
lfemur 4.10899 -36.14 -12.847
ltibia -2.71204
lfoot -10.8072 42.4462
ltoes 0.410796
